<svg xmlns="http://www.w3.org/2000/svg" viewBox="0 0 360 92" role="img" aria-labelledby="title desc">
<title id="title">Apple Gadgets</title><desc id="desc">Apple Gadgets logo</desc>
<g fill="none" stroke="#f4f4f4" stroke-width="5" stroke-linecap="round" stroke-linejoin="round">
<path d="M52 17c-10 0-18 7-18 16 0 4 1 7 4 10-7 4-11 11-11 19 0 12 9 21 21 21 7 0 12-3 17-3 6 0 10 3 17 3 11 0 19-8 21-19"/>
<path d="M47 17c4-9 12-14 21-14 0 9-5 16-14 18"/>
<path d="M86 42c-4-7-10-10-16-10"/>
</g>
<text x="78" y="57" font-family="Arial,Helvetica,sans-serif" font-size="49" font-weight="300" letter-spacing="-2" fill="#f28a16">gadgets</text>
<text x="166" y="82" font-family="Arial,Helvetica,sans-serif" font-size="20" font-weight="700" letter-spacing="1.1" fill="#ffffff">Apple Gadgets</text>
<text x="327" y="29" font-family="Arial,Helvetica,sans-serif" font-size="12" font-weight="700" fill="#ffffff">™</text>
</svg>